# xmcd
#
# Track frame offsets:
#	150
#	20956
#	42448
#	63780
#	78930
#	93242
#	117958
#	133752
#	149749
#	165598
#	181002
#	199810
#	218034
# Disc length: 3130 seconds
# Revision: 23
# Processed by: cddbd v1.5.2PL0 Copyright (c) Steve Scherf et al.
#
# Submitted via: libkcddb 0.10
#
DISCID=b70c380d
DTITLE=Williams - Lucinda - Car Wheels on a Gravel Road
DYEAR=1998
DGENRE=Alt-Country
TTITLE0=Right in Time
TTITLE1=Car Wheels on a Gravel Road
TTITLE2=2 Kool 2 Be 4-Gotten
TTITLE3=Drunken Angel
TTITLE4=Concrete and Barbed Wire
TTITLE5=Lake Charles
TTITLE6=Can't Let Go
TTITLE7=I Lost It
TTITLE8=Metal Firecracker
TTITLE9=Greenville
TTITLE10=Still I Long for Your Kiss
TTITLE11=Joy
TTITLE12=Jackson
EXTD=Lucinda Williams (born January 26, 1953) is an American rock, folk, and country music singer and songwriter. A three-time Grammy Award winner, she was named "America's best songwriter" by 2002 TIME.
EXTD=Car Wheels on a Gravel Road won a Grammy for Best
EXTD=Contemporary Folk Album, and was Willams' first album to go gold. It was voted as the best album of the year in The Village Voice Pazz and Jop critics poll. In 2003, the album was ranked number 304 on Rolling Stone magazine's list of the 500 greatest
EXTD=albums.
EXTD=
EXTT0=
EXTT1=
EXTT2=
EXTT3=
EXTT4=
EXTT5=
EXTT6=
EXTT7=
EXTT8=
EXTT9=
EXTT10=
EXTT11=
EXTT12=
PLAYORDER=
